<?xml version="1.0" encoding="utf-8"?>
<svg width="80px" height="80px" viewBox="0 0 80 80" version="1.1" xmlns:xlink="http://www.w3.org/1999/xlink" xmlns="http://www.w3.org/2000/svg">
  <g id="iconbigbicycle">
    <path d="M0 0L80 0L80 80L0 80L0 0Z" id="_Rectangle_167x167px_" fill="none" fill-rule="evenodd" stroke="none" />
    <g id="bike-2" transform="translate(28.478092 31.61638)">
      <path d="M9.64791 5.50898C14.9763 5.50898 19.2958 4.27576 19.2958 2.75449C19.2958 1.23323 14.9763 0 9.64791 0C4.31951 0 0 1.23323 0 2.75449C0 4.27576 4.31951 5.50898 9.64791 5.50898Z" transform="translate(2.0129266 37.566853)" id="Oval" fill="#A0B5B0" fill-rule="evenodd" stroke="none" />
      <path d="M7.1046 1.24312C7.09439 0.564023 6.54773 0.0152395 5.86868 0.0024041L1.31778 0.0024041C0.856984 -0.0262696 0.41838 0.203282 0.179306 0.598244C-0.0597685 0.993205 -0.0597685 1.48825 0.179306 1.88321C0.41838 2.27817 0.856984 2.50772 1.31778 2.47905L5.86868 2.47905C6.19844 2.48563 6.51664 2.35753 6.74987 2.12431C6.98309 1.89109 7.11119 1.57288 7.1046 1.24312Z" transform="translate(1.3418572 29.842293)" id="Path" fill="#AC312A" fill-rule="evenodd" stroke="none" />
      <path d="M6.95049 1.24072C6.94021 0.559792 6.3907 0.0102799 5.70977 0L1.16366 0C0.509618 0.0406992 0 0.583015 0 1.23832C0 1.89363 0.509618 2.43595 1.16366 2.47665L5.71935 2.47665C6.39576 2.46381 6.94028 1.91717 6.95049 1.24072L6.95049 1.24072Z" transform="translate(14.391782 26.764458)" id="Path" fill="#AC312A" fill-rule="evenodd" stroke="none" />
      <path d="M2.14611 0.00139587C3.14731 0.00139587 4.28743 0.638522 4.28743 1.80738C4.32096 5.59181 4.35449 7.66607 4.32096 11.1822C4.32096 14.8996 4.32096 18.1475 4.28743 20.2218C4.28743 21.5295 3.21437 22.1954 2.14611 22.2289C1.07784 22.2625 0.0335329 21.3619 0 20.423L0 11.2158C0 7.38343 0.0335329 3.88164 0.0335329 1.77385C0.0670659 0.537923 1.24072 -0.0321371 2.14611 0.00139587L2.14611 0.00139587Z" transform="translate(9.260832 18.997791)" id="Path" fill="#402326" fill-rule="evenodd" stroke="none" />
      <path d="M11.4692 9.62913L11.4692 9.62913C11.0425 9.62649 10.6979 9.27981 10.698 8.85308L10.7315 1.57164L2.18059 1.55727C1.50011 2.06375 1.28591 2.98815 1.67426 3.7423C2.06262 4.49645 2.93954 4.85897 3.74706 4.59919C4.14954 4.50579 4.55414 4.74616 4.66459 5.14431C4.77504 5.54245 4.55211 5.95691 4.15903 6.08422C2.64801 6.50976 1.0477 5.80216 0.345665 4.39809C-0.356372 2.99401 0.0377361 1.28921 1.28478 0.335715C1.41632 0.14328 1.62738 0.0201588 1.85963 0.000385201L1.85963 0.000385201C2.02251 0.000385201 18.262 0.0291277 21.1363 0.000385201C21.3627 -0.00692784 21.58 0.0902152 21.7255 0.263858C23.0517 1.19255 23.5008 2.9506 22.7825 4.40155C22.0642 5.8525 20.3939 6.56133 18.8513 6.06985C18.5829 5.99802 18.374 5.78747 18.3042 5.51863C18.2344 5.24978 18.3146 4.96418 18.514 4.77091C18.7135 4.57763 19.0015 4.50655 19.268 4.58482C20.0743 4.8626 20.9627 4.51114 21.3608 3.75692C21.7588 3.00271 21.5476 2.07093 20.8632 1.56206C19.3878 1.56206 15.8812 1.56206 12.274 1.56206L12.2405 8.85787C12.2379 9.28274 11.8941 9.62651 11.4692 9.62913Z" id="Path" fill="#AC312A" fill-rule="evenodd" stroke="none" />
      <path d="M4.33533 0.780838C4.33533 0.359281 3.85629 0 3.23832 0L1.09701 0C0.502994 0 0 0.359281 0 0.780838L0 8.88623C0 9.30779 0.479042 9.66707 1.09701 9.66707L3.23832 9.66707C3.83234 9.66707 4.33533 9.30779 4.33533 8.88623L4.33533 0.780838Z" transform="translate(9.260832 8.05308)" id="Path" fill="#EF3F35" fill-rule="evenodd" stroke="none" />
      <path d="M0.818538 12.7904C0.392584 12.7904 0.0472803 12.4451 0.0472803 12.0192C0.0472803 10.879 0.0472803 9.84431 0.0185378 8.90539C-0.0341568 4.68503 -0.0628993 2.36168 1.2353 1.04431C1.95387 0.320958 2.96944 0 4.5359 0C6.10237 0 7.07962 0.330539 7.77902 1.03952C8.95267 2.23234 8.92393 4.15329 8.88081 7.05629C8.88081 7.64551 8.88081 8.27784 8.88081 8.97246C8.84902 9.37618 8.51213 9.68758 8.10716 9.68758C7.70219 9.68758 7.3653 9.37618 7.33351 8.97246C7.33351 8.29222 7.33351 7.65509 7.33351 7.05629C7.37183 4.63234 7.40057 2.88383 6.67722 2.14611C6.29399 1.75808 5.5898 1.56647 4.5359 1.56647C3.09878 1.56647 2.5862 1.9018 2.3371 2.15569C1.4892 3.01317 1.51794 5.23114 1.56584 8.91018C1.56584 9.86826 1.56584 10.8934 1.56584 12.0431C1.55337 12.4506 1.22599 12.778 0.818538 12.7904L0.818538 12.7904Z" transform="translate(7.0434914 16.824337)" id="Path" fill="#FFC500" fill-rule="evenodd" stroke="none" />
      <path d="M3.1775 0.000481537C4.89925 -0.0293023 6.32724 1.32622 6.38708 3.04719C6.44768 4.35002 5.71035 5.55891 4.52427 6.10137C3.33819 6.64383 1.94146 6.41096 0.995532 5.51303C0.049604 4.6151 -0.25563 3.23239 0.22438 2.01969C0.704389 0.806987 1.87328 0.00775616 3.1775 0.000481537Z" transform="translate(8.320457 9.623856)" id="Path" fill="#FFC500" fill-rule="evenodd" stroke="none" />
      <path d="M2.05961 0.0014771C3.17546 -0.0114355 4.10801 0.847601 4.18655 1.96076C4.16038 3.08942 3.22669 3.98456 2.09793 3.96315C1.3678 4.00545 0.673646 3.64248 0.29179 3.01873C-0.0900652 2.39498 -0.0976423 1.61169 0.272075 0.980667C0.641793 0.349645 1.32879 -0.0266867 2.05961 0.0014771L2.05961 0.0014771Z" transform="translate(9.438352 10.6671715)" id="Path" fill="#E4FFF8" fill-rule="evenodd" stroke="none" />
      <path d="M0 1.12156C0 1.12156 3.72216 1.12156 3.72216 1.07365C3.33892 0.401335 2.62076 -0.00978203 1.84695 0.000176921C1.07314 0.0101359 0.365803 0.439599 0 1.12156Z" transform="translate(9.644065 10.672837)" id="Path" fill="#98ACA9" fill-rule="evenodd" stroke="none" />
    </g>
  </g>
</svg>