<?xml version="1.0" encoding="utf-8"?>
<svg width="80px" height="80px" viewBox="0 0 80 80" version="1.1" xmlns:xlink="http://www.w3.org/1999/xlink" xmlns="http://www.w3.org/2000/svg">
  <g id="iconbigcar">
    <g id="Icon_Car">
      <path d="M0 0L80 0L80 80L0 80L0 0Z" id="_Rectangle_167x167px_" fill="none" fill-rule="evenodd" stroke="none" />
      <g id="car-2" transform="translate(7.2213097 24.854923)">
        <path d="M31.6359 5.76767C49.108 5.76767 63.2719 4.47653 63.2719 2.88383C63.2719 1.29114 49.108 0 31.6359 0C14.1639 0 0 1.29114 0 2.88383C0 4.47653 14.1639 5.76767 31.6359 5.76767Z" transform="translate(1.5547388 44.10317)" id="Oval" fill="#A0B5B0" fill-rule="evenodd" stroke="none" />
        <path d="M0.0526559 4.53073C-0.598841 0.272046 4.96284 -0.518373 7.47302 0.272046C8.53649 0.616957 8.80955 4.32474 6.64907 4.66965C4.46541 5.09307 2.21655 5.0457 0.0526559 4.53073Z" transform="translate(57.286514 10.4754305)" id="Path" fill="#402326" fill-rule="evenodd" stroke="none" />
        <path d="M8.21821 4.53073C8.86971 0.272046 3.31761 -0.518373 0.797853 0.272046C-0.265621 0.597795 -0.514722 4.32474 1.6218 4.66965C3.8055 5.09262 6.05426 5.04526 8.21821 4.53073L8.21821 4.53073Z" transform="translate(0 10.4754305)" id="Path" fill="#402326" fill-rule="evenodd" stroke="none" />
        <path d="M0 0.00958084L0.0383234 8.45988C0.823952 12.206 9.5521 12.2922 10.0647 8.5988L10.0311 0.172455L0 0L0 0.00958084Z" transform="translate(5.2625237 35.810955)" id="Path" fill="#402326" fill-rule="evenodd" stroke="none" />
        <path d="M0.00479042 0.00958084L0.0383233 8.45988C0.828742 12.206 9.55209 12.2922 10.0695 8.5988L10.0311 0.172455L0 0L0.00479042 0.00958084Z" transform="translate(50.29246 35.810955)" id="Path" fill="#402326" fill-rule="evenodd" stroke="none" />
        <path d="M10.8215 0.760496C14.0167 -0.269444 35.9328 -0.302977 39.2622 0.966484C46.649 3.78325 49.5664 14.7773 50.4286 26.8012C34.1795 26.3892 25.9688 26.6958 0.0334358 26.8348C-0.397702 13.5078 3.34841 3.20361 10.8215 0.760496Z" transform="translate(7.825495 0.60733753)" id="Path" fill="#D9F4ED" fill-rule="evenodd" stroke="none" />
        <path d="M0.654999 28.0601C0.321052 28.0602 0.0473899 27.795 0.0370349 27.4613C-0.442007 13.1954 3.74961 3.22173 11.2514 0.778612L11.2514 0.778612C14.4562 -0.256119 36.6406 -0.332765 40.1041 0.994181C46.7053 3.51394 50.5951 12.3858 51.6682 27.3415C51.6804 27.5183 51.6178 27.6921 51.4957 27.8205C51.3713 27.9507 51.1966 28.0205 51.0167 28.0121C39.5772 27.7247 32.0754 27.7918 19.6442 27.902C14.3316 27.9499 8.3053 28.0074 0.645418 28.0457L0.654999 28.0601ZM11.6346 1.97143C4.79392 4.19897 0.932843 13.4684 1.25859 26.8289C8.62626 26.7858 14.4754 26.7331 19.649 26.6852C31.8406 26.575 39.2897 26.508 50.3796 26.781C49.2825 12.7403 45.6801 4.45765 39.6634 2.16304C36.3819 0.903163 14.5712 1.01334 11.6346 1.97143Z" transform="translate(7.218303 0)" id="Shape" fill="#AE352E" stroke="none" />
        <path d="M6.0503 12.1006C2.70881 12.1006 0 9.39179 0 6.0503C0 2.70881 2.70881 0 6.0503 0C9.39179 0 12.1006 2.70881 12.1006 6.0503C12.0953 9.3896 9.3896 12.0953 6.0503 12.1006ZM6.0503 1.24551C3.40462 1.24551 1.25988 3.39025 1.25988 6.03593C1.25988 8.68161 3.40462 10.8264 6.0503 10.8264C8.69598 10.8264 10.8407 8.68161 10.8407 6.03593C10.8407 3.39025 8.69598 1.24551 6.0503 1.24551Z" transform="translate(40.227795 7.547476)" id="Shape" fill="#402326" stroke="none" />
        <path d="M10.2754 0.0182098C-1.81565 -0.671611 -0.41206 18.4661 0.72327 18.5332C19.4778 25.8817 39.5736 26.2601 61.2119 18.4278C62.0406 18.1164 65.2694 0.35833 51.3197 0.0182098L10.2754 0.0182098Z" transform="translate(2.0673976 13.684956)" id="Path" fill="#EF3F35" fill-rule="evenodd" stroke="none" />
        <path d="M0.387833 11.9956C9.79939 12.5578 19.2347 12.6042 28.6513 12.1345C28.6513 12.1345 30.1315 2.55364 27.1423 1.31292C22.5052 -0.603246 6.22256 -0.334983 1.6525 1.55244C-1.05887 2.65424 0.383043 11.9956 0.383043 11.9956L0.387833 11.9956Z" transform="translate(18.891459 24.169888)" id="Path" fill="#F97A5E" fill-rule="evenodd" stroke="none" />
        <path d="M0.81204 0C-0.251433 0.033533 -0.289757 1.68144 0.81204 1.85389L22.848 1.85389C23.2779 1.77004 23.5962 1.40525 23.6211 0.967902C23.646 0.530551 23.371 0.132039 22.9534 0L0.81204 0Z" transform="translate(21.66725 28.505564)" id="Path" fill="#AE352E" fill-rule="evenodd" stroke="none" />
        <path d="M0.81204 0C-0.251433 0.033533 -0.289757 1.68144 0.81204 1.8539L22.848 1.8539C23.2779 1.77004 23.5962 1.40525 23.6211 0.967903C23.646 0.530552 23.371 0.132039 22.9534 0L0.81204 0Z" transform="translate(21.66725 31.700773)" id="Path" fill="#AE352E" fill-rule="evenodd" stroke="none" />
        <path d="M60.8335 5.71976C60.5557 8.80958 45.4084 10.424 31.291 10.1509C15.2144 9.83952 0.0335329 8.08623 0.0335329 5.32695L0 0C4.22515 5.53293 57.2599 5.7006 61.279 0.172455C61.624 -0.34491 61.0012 3.77964 60.8335 5.73892L60.8335 5.71976Z" transform="translate(2.2780921 31.135506)" id="Path" fill="#AE352E" fill-rule="evenodd" stroke="none" />
        <path d="M4.51747 0.00636775C6.1172 -0.080127 7.63498 0.719745 8.46791 2.08826C9.30085 3.45677 9.31409 5.17237 8.50237 6.55357C7.69066 7.93478 6.18541 8.75798 4.58454 8.69619C2.98481 8.78268 1.46704 7.98281 0.634103 6.6143C-0.198831 5.24578 -0.212071 3.53019 0.599641 2.14898C1.41135 0.767777 2.9166 -0.0554256 4.51747 0.00636775Z" transform="translate(7.4468465 22.420155)" id="Path" fill="#FFC500" fill-rule="evenodd" stroke="none" />
        <path d="M3.20844 0.0339268C3.97977 0.00419415 4.73064 0.285956 5.29199 0.815776C5.85335 1.34559 6.17801 2.07894 6.19287 2.85069C6.15635 4.45262 4.84431 5.73058 3.24197 5.72495C2.13996 5.8671 1.05472 5.36133 0.45485 4.42603C-0.14502 3.49072 -0.152057 2.29344 0.436778 1.35114C1.02561 0.408852 2.10483 -0.109637 3.20844 0.0195555L3.20844 0.0339268Z" transform="translate(8.755879 23.901577)" id="Path" fill="#E4FFF8" fill-rule="evenodd" stroke="none" />
        <path d="M0 1.57516L5.26946 1.50809C4.72211 0.562798 3.70735 -0.0136553 2.61511 0.000245862C1.52288 0.014147 0.523114 0.61624 3.4038e-15 1.57516L0 1.57516Z" transform="translate(9.320009 23.941189)" id="Path" fill="#98ACA9" fill-rule="evenodd" stroke="none" />
        <path d="M4.50299 9.85909e-05C6.87724 0.0839856 8.74498 2.05735 8.69827 4.43262C8.65155 6.80789 6.70766 8.70629 4.33194 8.69675C1.95623 8.68722 0.0276459 6.77327 0 4.3977C0.0419627 1.9454 2.05038 -0.0160163 4.50299 9.85909e-05L4.50299 9.85909e-05Z" transform="translate(49.593063 22.2875)" id="Path" fill="#FFC500" fill-rule="evenodd" stroke="none" />
        <path d="M3.22739 0.031424C3.99953 0.000371135 4.75164 0.281544 5.31405 0.811506C5.87646 1.34147 6.20178 2.07557 6.21661 2.84819C6.18005 4.45199 4.86511 5.7307 3.26092 5.72244C2.15532 5.87254 1.06274 5.36924 0.458301 4.4314C-0.146138 3.49356 -0.153213 2.29065 0.44015 1.34577C1.03351 0.40088 2.1201 -0.11524 3.22739 0.0218432L3.22739 0.031424Z" transform="translate(50.868668 23.769949)" id="Path" fill="#E4FFF8" fill-rule="evenodd" stroke="none" />
        <path d="M6.80759e-15 1.60318L5.26946 1.53133C4.73159 0.572774 3.71241 -0.014707 2.61336 0.00028006C1.51432 0.0152671 0.511537 0.63032 0 1.60318L6.80759e-15 1.60318Z" transform="translate(51.432587 23.812563)" id="Path" fill="#98ACA9" fill-rule="evenodd" stroke="none" />
      </g>
    </g>
  </g>
</svg>