<?xml version="1.0" encoding="utf-8"?>
<svg width="80px" height="80px" viewBox="0 0 80 80" version="1.1" xmlns:xlink="http://www.w3.org/1999/xlink" xmlns="http://www.w3.org/2000/svg">
  <g id="iconbigmotorbike">
    <g id="Icon_Motorbike">
      <path d="M0 0L80 0L80 80L0 80L0 0Z" id="_Rectangle_167x167px_" fill="none" fill-rule="evenodd" stroke="none" />
      <g id="motorbike-2" transform="translate(21.62369 18.092283)" opacity="0.97">
        <path d="M13.188 7.81796C20.4716 7.81796 26.376 6.06785 26.376 3.90898C26.376 1.75011 20.4716 0 13.188 0C5.90448 0 0 1.75011 0 3.90898C0 6.06785 5.90448 7.81796 13.188 7.81796Z" transform="translate(5.020621 48.638252)" id="Oval" fill="#A0B5B0" fill-rule="evenodd" stroke="none" />
        <path d="M26.398 1.02276C26.3903 0.462467 25.938 0.0101332 25.3777 0.00240392L1.09023 0.00240392C0.709881 -0.0237033 0.346702 0.164408 0.148586 0.490137C-0.0495288 0.815866 -0.0495288 1.22487 0.148586 1.5506C0.346702 1.87633 0.709881 2.06444 1.09023 2.03833L25.3777 2.03833C25.9291 2.01423 26.3713 1.57405 26.398 1.02276L26.398 1.02276Z" transform="translate(4.28488 32.3101)" id="Path" fill="#402326" fill-rule="evenodd" stroke="none" />
        <path d="M24.8506 4.38431C21.4734 -1.3115 3.29372 -1.63725 0.275753 4.46574C-0.294307 5.6873 -0.730235 19.6801 7.07336 26.5592C7.76318 27.1675 17.8135 26.8418 18.0578 26.6406C24.7308 21.5532 25.9907 6.37712 24.8506 4.38431Z" transform="translate(4.974808 12.388081)" id="Path" fill="#EF3F35" fill-rule="evenodd" stroke="none" />
        <path d="M2.37797 17.7791C1.72647 16.6006 -5.10946 0.164696 7.86779 0.00182154C21.0941 -0.204166 13.6163 17.1276 13.281 17.8222C11.7337 18.3395 3.23066 18.2198 2.37797 17.7791Z" transform="translate(9.670199 21.134636)" id="Path" fill="#AC312A" fill-rule="evenodd" stroke="none" />
        <path d="M0.268857 19.8719C0.747899 24.8779 1.97904 26.8707 4.62335 26.8707C7.18622 26.8707 8.28323 24.6719 8.73353 19.9102C9.0976 13.0743 8.97784 2.54013 8.73353 2.18564C7.02335 -0.741304 2.30479 -0.688609 0.350294 2.10421C0.18742 2.32456 -0.301203 14.4587 0.268857 19.8719Z" transform="translate(13.202064 27.0083)" id="Path" fill="#402326" fill-rule="evenodd" stroke="none" />
        <path d="M5.43504 0.000434803C9.21947 -0.042679 11.3368 3.13337 10.8865 3.78487C9.44941 3.82319 7.26498 3.33457 5.39672 3.33457C3.52846 3.33457 1.89492 3.78487 0.127258 3.78487C-0.605676 2.88906 1.91408 0.0387582 5.4542 0.000434803L5.43504 0.000434803Z" transform="translate(12.428692 26.00788)" id="Path" fill="#F9775B" fill-rule="evenodd" stroke="none" />
        <path d="M5.36911 2.73533C5.73318 2.65389 8.37749 1.55689 8.37749 1.55689L7.76911 0L4.75593 1.22156C4.39186 1.50419 0.894857 2.31856 0.525994 2.65868C-0.532688 3.61677 0.118809 4.85748 1.48408 4.61317C1.72839 4.53174 5.34995 2.74012 5.34995 2.74012L5.36911 2.73533Z" transform="translate(2.7317524 10.171189)" id="Path" fill="#402326" fill-rule="evenodd" stroke="none" />
        <path d="M3.00838 2.73533C2.64431 2.65389 0 1.55689 0 1.55689L0.608383 0L3.61677 1.22156C3.98563 1.50419 7.48264 2.31856 7.8515 2.65868C8.91018 3.61677 8.25868 4.85748 6.89341 4.61317C6.6491 4.53174 3.02755 2.74012 3.02755 2.74012L3.00838 2.73533Z" transform="translate(24.742777 10.171189)" id="Path" fill="#402326" fill-rule="evenodd" stroke="none" />
        <path d="M2.06458 8.99671C-1.88273 13.2698 -0.809675 18.9656 10.9364 19.1668C22.9795 19.4542 23.9951 12.9392 20.2538 9.27934C19.7221 8.75239 19.2334 1.55239 18.055 0.287725C17.8921 0.12485 16.3448 0.0865269 16.2634 0.330838C15.3292 3.68413 6.68254 3.68413 5.68613 0.00508982C5.68613 0.00508982 3.89452 -0.0763473 3.56877 0.412275C2.84062 1.57156 2.5532 8.44581 2.06458 8.99671Z" transform="translate(6.644667 1.6535255)" id="Path" fill="#AC312A" fill-rule="evenodd" stroke="none" />
        <path d="M0 1.79754C3.17605 -0.640786 8.50299 -0.597672 11.6359 1.92209C10.9844 4.60472 8.95329 9.65382 5.94012 9.69215C2.92695 9.73047 0.287425 4.24065 0 1.79754Z" transform="translate(11.51643 0)" id="Path" fill="#D9F4ED" fill-rule="evenodd" stroke="none" />
        <path d="M1.37456 5.79397C1.2548 5.87541 1.41767 6.57002 1.09192 7.01553C0.929049 7.25984 0.397313 7.58559 0.277552 7.38439C-0.131698 6.62599 -0.085548 5.70298 0.397313 4.98918C1.58055 4.58679 5.66677 4.51014 5.48474 2.87661C5.48474 1.53529 6.92186 0.00235706 8.17216 0.00235706C10.2847 0.00235706 12.0332 -0.122194 12.1578 1.43948C12.3207 3.47541 8.49312 4.20834 7.55899 4.45266C7.52067 4.45266 2.39013 5.14248 1.37456 5.8323L1.37456 5.79397Z" transform="translate(22.836481 2.1879947)" id="Path" fill="#402326" fill-rule="evenodd" stroke="none" />
        <path d="M10.7835 5.79397C10.908 5.87541 10.7452 6.57002 11.0709 7.01553C11.2338 7.25984 11.7607 7.58559 11.8853 7.38439C12.292 6.62486 12.2441 5.70243 11.7607 4.98918C10.5823 4.58679 6.49128 4.51014 6.67811 2.87661C6.67811 1.53529 5.24098 0.00235706 3.99068 0.00235706C1.87332 0.00235706 0.124813 -0.122194 0.00505219 1.43948C-0.157822 3.47541 3.66493 4.20834 4.59906 4.45266C4.59906 4.45266 9.7296 5.14248 10.7835 5.8323L10.7835 5.79397Z" transform="translate(0 2.1879947)" id="Path" fill="#402326" fill-rule="evenodd" stroke="none" />
        <path d="M4.08623 0.00244802C5.16365 -0.0349967 6.2116 0.358388 6.99823 1.09558C7.78487 1.83277 8.24536 2.853 8.27785 3.93059C8.26785 4.99991 7.8301 6.0207 7.06234 6.76506C6.29458 7.50942 5.26073 7.91537 4.19162 7.89227C3.11786 7.93107 2.07274 7.54138 1.2865 6.80906C0.500271 6.07674 0.0374456 5.06188 0 3.98808C0.0596073 1.77288 1.87024 0.00682982 4.08623 0.00244802Z" transform="translate(7.717627 12.947185)" id="Path" fill="#FFC500" fill-rule="evenodd" stroke="none" />
        <path d="M2.69304 0.000575637C4.1477 -0.0293304 5.35912 1.1097 5.41879 2.56345C5.47947 3.67028 4.8603 4.70259 3.85526 5.17021C2.85022 5.63782 1.66175 5.44656 0.854168 4.68723C0.0465851 3.92791 -0.21745 2.75346 0.187433 1.72155C0.592316 0.68964 1.58457 0.00811354 2.69304 0.000575637Z" transform="translate(9.110817 14.371811)" id="Path" fill="#E4FFF8" fill-rule="evenodd" stroke="none" />
        <path d="M0 0L4.84311 0.0814371C4.33644 0.948184 3.40157 1.47417 2.39774 1.45729C1.3939 1.44041 0.477251 0.883292 0 0Z" transform="translate(9.360741 18.07538)" id="Path" fill="#98ACA9" fill-rule="evenodd" stroke="none" />
        <path d="M4.1485 0.000228558C6.35173 0.065861 8.09318 1.8899 8.05674 4.0938C8.02029 6.2977 6.21948 8.06315 4.01529 8.0559C1.8111 8.04865 0.0219448 6.27139 0 4.06729C0.0101118 2.97762 0.453034 1.93668 1.23118 1.17381C2.00933 0.410938 3.05885 -0.0112623 4.1485 0.000228558Z" transform="translate(19.573914 12.949404)" id="Path" fill="#FFC500" fill-rule="evenodd" stroke="none" />
        <path d="M2.71138 0.000160186C4.1822 -0.0146883 5.4033 1.13248 5.48024 2.60136C5.44627 4.07927 4.23275 5.25652 2.75449 5.24567C1.28825 5.25524 0.0743078 4.10886 0 2.64447C0.0210279 1.16662 1.23346 -0.0158252 2.71138 0.000160186Z" transform="translate(21.01104 14.372227)" id="Path" fill="#E4FFF8" fill-rule="evenodd" stroke="none" />
        <path d="M0 6.8076e-15L4.88144 0.0814371C4.37204 0.956696 3.42941 1.48833 2.41685 1.47144C1.40429 1.45455 0.479915 0.891763 6.8076e-15 0L0 6.8076e-15Z" transform="translate(21.322418 18.156816)" id="Path" fill="#98ACA9" fill-rule="evenodd" stroke="none" />
      </g>
    </g>
  </g>
</svg>