<?xml version="1.0" encoding="utf-8"?>
<svg width="80px" height="80px" viewBox="0 0 80 80" version="1.1" xmlns:xlink="http://www.w3.org/1999/xlink" xmlns="http://www.w3.org/2000/svg">
  <g id="iconbigtaxi">
    <g id="Icon_Taxi">
      <path d="M0 0L80 0L80 80L0 80L0 0Z" id="_Rectangle_167x167px_" fill="none" fill-rule="evenodd" stroke="none" />
      <g id="taxi-2" transform="translate(7.000393 22.007187)">
        <path d="M31.5353 5.72934C48.9518 5.72934 63.0707 4.44679 63.0707 2.86467C63.0707 1.28256 48.9518 0 31.5353 0C14.1188 0 0 1.28256 0 2.86467C0 4.44679 14.1188 5.72934 31.5353 5.72934Z" transform="translate(1.9145772 46.99402)" id="Oval" fill="#A0B5B0" fill-rule="evenodd" stroke="none" />
        <path d="M0.0537669 4.55828C-0.607311 0.275643 4.99748 -0.524357 7.54119 0.275643C8.5855 0.625343 8.86335 4.35229 6.66934 4.6972C4.47968 5.12561 2.22351 5.07823 0.0537669 4.55828Z" transform="translate(57.669186 13.09921)" id="Path" fill="#FFC500" fill-rule="evenodd" stroke="none" />
        <path d="M8.27625 4.55828C8.93733 0.275643 3.33254 -0.524357 0.788829 0.275643C-0.255482 0.625343 -0.533327 4.35229 1.66069 4.6972C3.85044 5.12442 6.10636 5.07705 8.27625 4.55828L8.27625 4.55828Z" transform="translate(0 13.09921)" id="Path" fill="#FFC500" fill-rule="evenodd" stroke="none" />
        <path d="M0 6.80759e-15L0.0383234 8.49341C0.838323 12.2874 9.61916 12.3928 10.1365 8.63234L10.0982 0.138922L0 0L0 6.80759e-15Z" transform="translate(5.3157744 38.586834)" id="Path" fill="#402326" fill-rule="evenodd" stroke="none" />
        <path d="M0 6.80759e-15L0.0335329 8.49341C0.833533 12.2874 9.61437 12.3928 10.1317 8.63234L10.0982 0.138922L6.8076e-15 0L0 6.80759e-15Z" transform="translate(50.618763 38.586834)" id="Path" fill="#402326" fill-rule="evenodd" stroke="none" />
        <path d="M0 3.27186L10.8024 3.27186C11.0467 1.9497 10.3234 0.833533 8.50299 0L2.68742 0C0.876647 0.661078 0.0431138 1.77725 0.00958084 3.27186L0 3.27186Z" transform="translate(27.490622 0)" id="Path" fill="#FFC500" fill-rule="evenodd" stroke="none" />
        <path d="M10.7957 0.210778L38.7909 0C47.84 0.244311 49.9334 14.4144 50.767 26.4623C34.4029 26.0455 26.149 26.3617 0.0364425 26.5006C-0.385114 13.1018 2.82926 0.603593 10.7957 0.210778Z" transform="translate(7.894901 3.6502995)" id="Path" fill="#D9F4ED" fill-rule="evenodd" stroke="#D1A200" stroke-width="1" stroke-linecap="round" stroke-linejoin="round" />
        <path d="M6.11275 12.2157C3.64195 12.2177 1.41336 10.7308 0.466481 8.44863C-0.480397 6.16646 0.0409759 3.53861 1.78741 1.7908C3.53385 0.0429949 6.16129 -0.48044 8.4442 0.464648C10.7271 1.40974 12.2157 3.63716 12.2157 6.10796C12.2131 9.47824 9.48302 12.2105 6.11275 12.2157ZM6.11275 1.19778C3.40887 1.19778 1.21694 3.38971 1.21694 6.09359C1.21694 8.79747 3.40887 10.9894 6.11275 10.9894C8.81663 10.9894 11.0086 8.79747 11.0086 6.09359C10.998 3.39642 8.80994 1.21477 6.11275 1.21215L6.11275 1.19778Z" transform="translate(40.46769 10.12198)" id="Shape" fill="#402326" stroke="none" />
        <path d="M10.3451 0.0185678C-1.84175 -0.680833 -0.414208 18.6102 0.735493 18.7012C19.6097 26.0832 39.8061 26.5 61.6025 18.5958C62.4696 18.2222 65.6552 0.38743 51.6433 0.0185678L10.3451 0.0185678Z" transform="translate(2.0748925 16.297602)" id="Path" fill="#FFC500" fill-rule="evenodd" stroke="none" />
        <path d="M0 0L3.35329 0L3.35329 3.48263L0 3.48263L0 0ZM13.3365 0.0335329L16.6898 0.0335329L16.6898 3.51617L13.3365 3.51617L13.3365 0.0335329ZM6.62994 0.0335329L9.98323 0.0335329L9.98323 3.51617L6.62994 3.51617L6.62994 0.0335329ZM20 0.0670659L23.3533 0.0670659L23.3533 3.5497L20 3.5497L20 0.0670659ZM3.34371 3.48263L6.69701 3.48263L6.69701 6.96527L3.34371 6.96527L3.34371 3.48263ZM16.6802 3.51617L20.0335 3.51617L20.0335 6.9988L16.6802 6.9988L16.6802 3.51617ZM10.0263 3.51617L13.3796 3.51617L13.3796 6.9988L10.0263 6.9988L10.0263 3.51617Z" transform="translate(21.579247 18.285034)" id="Shape" fill="#402326" fill-rule="evenodd" stroke="none" />
        <path d="M0.392446 12.034C9.85324 12.6058 19.3385 12.6522 28.8044 12.1729C28.8044 12.1729 30.3038 2.52977 27.2763 1.313C22.6104 -0.603167 6.24155 -0.325322 1.64754 1.51899C-1.06863 2.63516 0.392446 12.034 0.392446 12.034Z" transform="translate(19.026321 26.897781)" id="Path" fill="#402326" fill-rule="evenodd" stroke="none" />
        <path d="M0.821006 0C-0.256838 0.033533 -0.290371 1.70539 0.821006 1.84431L22.9671 1.84431C23.3886 1.75369 23.6976 1.39271 23.7222 0.962295C23.7468 0.531881 23.4809 0.13805 23.0725 0L0.821006 0Z" transform="translate(21.836084 31.238329)" id="Path" fill="#FFC500" fill-rule="evenodd" stroke="none" />
        <path d="M0.821006 0C-0.256838 0.033533 -0.290371 1.70539 0.821006 1.84431L22.9671 1.84431C23.3886 1.75369 23.6976 1.39271 23.7222 0.962296C23.7468 0.531882 23.4809 0.13805 23.0725 0L0.821006 0Z" transform="translate(21.836084 34.44312)" id="Path" fill="#FFC500" fill-rule="evenodd" stroke="none" />
        <path d="M61.2503 5.78204C61.006 8.91497 45.6862 10.515 31.5114 10.2371C15.3198 9.88743 0.0718563 8.1485 0.0335329 5.32695L0 0C4.28263 5.57126 57.6287 5.71018 61.6335 0.138922C62.0168 -0.287425 61.3892 3.79401 61.2503 5.78204Z" transform="translate(2.28823 33.849106)" id="Path" fill="#D1A200" fill-rule="evenodd" stroke="none" />
        <path d="M4.52216 0.000662718C6.92238 0.0741455 8.81772 2.06332 8.77522 4.4643C8.73271 6.86527 6.76817 8.78612 4.36684 8.77461C1.96551 8.76309 0.0194755 6.8235 0 4.42222C0.00622546 3.23396 0.487914 2.09764 1.33755 1.2669C2.18719 0.436166 3.33405 -0.0198412 4.52216 0.000662718L4.52216 0.000662718Z" transform="translate(7.5481095 25.110718)" id="Path" fill="#D1A200" fill-rule="evenodd" stroke="none" />
        <path d="M2.95569 0.00115538C4.53172 0.0458276 5.77757 1.35178 5.748 2.92816C5.71842 4.50455 4.42447 5.76286 2.84787 5.74838C1.27127 5.73391 0.000633218 4.45207 2.31995e-07 2.87541C-0.000311559 2.09879 0.313664 1.35509 0.870434 0.813661C1.4272 0.272231 2.17938 -0.0208489 2.95569 0.00115538L2.95569 0.00115538Z" transform="translate(9.114576 26.638367)" id="Path" fill="#E4FFF8" fill-rule="evenodd" stroke="none" />
        <path d="M3.4038e-15 1.57913L5.32695 1.50727C4.76678 0.560321 3.74279 -0.0145593 2.64266 0.00028051C1.54253 0.0151204 0.534421 0.617413 0 1.57913L3.4038e-15 1.57913Z" transform="translate(9.392421 26.631657)" id="Path" fill="#98ACA9" fill-rule="evenodd" stroke="none" />
        <path d="M4.52695 0.000373446C6.92645 0.0764581 8.81937 2.0667 8.77516 4.467C8.73095 6.86731 6.76602 8.78649 4.36534 8.77416C1.96466 8.76183 0.019552 6.82256 0 4.42193C0.0126249 3.23485 0.496995 2.10157 1.34626 1.27208C2.19552 0.442583 3.3399 -0.0149624 4.52695 0.000373446L4.52695 0.000373446Z" transform="translate(49.924152 24.972084)" id="Path" fill="#D1A200" fill-rule="evenodd" stroke="none" />
        <path d="M2.96048 0.000201614C4.53579 0.0474824 5.77923 1.35451 5.74794 2.93022C5.71665 4.50593 4.42232 5.76256 2.84637 5.74727C1.27042 5.73198 0.000709375 4.45047 0 2.87445C0.0288639 1.26542 1.3513 -0.0184943 2.96048 0.000201614Z" transform="translate(51.490616 26.466867)" id="Path" fill="#E4FFF8" fill-rule="evenodd" stroke="none" />
        <path d="M0 1.62995L5.32695 1.55809C4.78729 0.583832 3.75561 -0.0147458 2.64197 0.000276265C1.52834 0.0152983 0.513182 0.641486 6.8076e-15 1.62995L0 1.62995Z" transform="translate(51.768463 26.475447)" id="Path" fill="#98ACA9" fill-rule="evenodd" stroke="none" />
      </g>
    </g>
  </g>
</svg>