<?xml version="1.0" encoding="utf-8"?>
<svg width="80px" height="80px" viewBox="0 0 80 80" version="1.1" xmlns:xlink="http://www.w3.org/1999/xlink" xmlns="http://www.w3.org/2000/svg">
  <g id="iconbigtruck">
    <g id="Icon_Truck">
      <path d="M0 0L80 0L80 80L0 80L0 0Z" id="_Rectangle_167x167px_" fill="none" fill-rule="evenodd" stroke="none" />
      <g id="truck-2" transform="translate(8 6.4)">
        <path d="M30.8886 6.34251C47.9479 6.34251 61.7772 4.92269 61.7772 3.17126C61.7772 1.41982 47.9479 0 30.8886 0C13.8293 0 0 1.41982 0 3.17126C0 4.92269 13.8293 6.34251 30.8886 6.34251Z" transform="translate(1.1931788 61.996277)" id="Oval" fill="#A0B5B0" fill-rule="evenodd" stroke="none" />
        <path d="M1.41984 1.08609C-0.151417 2.78669 -0.716686 44.0993 1.28571 46.437C2.45457 47.7687 16.0162 46.9687 29.3384 46.8011C42.6606 46.6334 55.7528 47.237 56.457 46.322C57.8606 44.4825 58.057 1.87172 56.021 0.870525C53.9851 -0.130673 2.92403 -0.518697 1.41984 1.08609Z" transform="translate(2.8439968 0)" id="Path" fill="#EF3F35" fill-rule="evenodd" stroke="none" />
        <path d="M0.191981 9.50219C1.36084 9.60279 5.7345 10.2687 7.10456 10.3022C8.10575 10.3357 8.44108 8.38602 7.66983 8.33333C6.89857 8.28063 5.19797 8.43392 5.19797 8.13213C5.2315 5.73692 6.00276 1.75608 5.5333 0.520153C5.19797 -0.385236 1.42791 -0.150506 1.05905 1.55488C0.556053 3.62434 -0.411612 7.78243 0.191981 9.50219Z" transform="translate(0 21.504866)" id="Path" fill="#402326" fill-rule="evenodd" stroke="none" />
        <path d="M7.90192 9.50335C6.73306 9.60395 2.3594 10.2698 0.989343 10.3034C-0.0118551 10.3369 -0.347185 8.38719 0.424073 8.33449C1.19533 8.2818 2.89114 8.43509 2.89114 8.13329C2.85761 5.73808 2.09114 1.75245 2.5606 0.516526C2.89114 -0.384073 6.66599 -0.149343 7.03485 1.55605C7.51389 3.65904 8.53904 7.78359 7.90192 9.50335Z" transform="translate(54.503242 21.637835)" id="Path" fill="#402326" fill-rule="evenodd" stroke="none" />
        <path d="M0 38.0246C0 38.0246 0.0335329 12.6066 0.234731 4.55874C0.268263 1.92401 2.1509 0.352754 3.50659 0.118023C5.07784 -0.15024 36.9677 0.118023 43.8515 0.151556C45.7677 0.151556 47.2575 1.38748 47.521 3.92641C47.7222 5.39706 47.7892 37.8569 47.7892 37.8569L0 38.0246Z" transform="translate(7.636293 11.986035)" id="Path" fill="#F97A5E" fill-rule="evenodd" stroke="none" />
        <path d="M0.00838323 13.3817C0.00838323 12.7781 -0.0251497 4.96496 0.0419162 1.76017C0.158 1.04903 0.640503 0.451821 1.31138 0.188912C2.58084 -0.0793513 37.0766 -0.0122854 41.5892 0.0883134C41.8527 0.0883134 43.2563 0.653583 43.2898 1.92304C43.3234 2.5937 43.3904 8.76855 43.3904 13.1805C43.1906 14.2926 42.2775 15.1373 41.1533 15.25C39.4144 15.4847 4.61677 15.25 1.78084 15.25C0.31018 15.3171 0.0419162 13.9135 0.00838323 13.3817L0.00838323 13.3817Z" transform="translate(9.821922 16.858858)" id="Path" fill="#D9F4ED" fill-rule="evenodd" stroke="none" />
        <path d="M11.3533 5.72002L11.3533 5.56673L11.3533 5.56673C11.3338 4.11579 10.7475 2.73003 9.71976 1.70565C8.6659 0.631297 7.22939 0.018112 5.72455 0.000261077C4.21565 -0.0143365 2.76536 0.583756 1.70539 1.65775C0.630878 2.70953 0.017546 4.14466 0 5.64817C0 5.64817 0 5.67691 0 5.69128L0 5.69128L0 6.74038L1.36048 6.74038L1.36048 5.67212L1.36048 5.67212C1.36048 5.67212 1.36048 5.67212 1.36048 5.67212C1.3718 4.52267 1.83666 3.42422 2.65389 2.61583C3.45768 1.80045 4.56061 1.35027 5.70539 1.37032C6.85433 1.38647 7.95065 1.8546 8.75689 2.67332C9.5659 3.47939 10.015 4.57805 10.0024 5.72002C10.0024 5.72002 10.0024 5.72002 10.0024 5.72002L10.0024 6.79308L11.3485 6.79308L11.3485 5.72002L11.3533 5.72002Z" transform="translate(38.17043 25.421164)" id="Path" fill="#402326" fill-rule="evenodd" stroke="none" />
        <path d="M0.0149035 7.33533C0.0149035 7.00479 -0.0186294 2.65988 0.0149035 0.925749C0.0149035 0.590419 0.618496 0.125749 1.15023 0.0922156C2.28556 -0.0419162 33.179 -0.00838323 37.2508 0.0586826C37.4856 0.0586826 38.7215 0.389222 38.755 1.09341C38.755 1.46228 38.7886 4.86826 38.8556 7.32096C38.8556 7.65629 38.1898 8.42755 36.8868 8.48982C35.3155 8.62395 4.12508 8.48982 1.61969 8.48982C0.3167 8.44192 0.0484365 7.67066 0.0149035 7.33533Z" transform="translate(12.028576 36.926815)" id="Path" fill="#402326" fill-rule="evenodd" stroke="none" />
        <path d="M0 0L0.0335329 7.31497C0.737725 10.5868 8.3497 10.6683 8.81916 7.41557L8.81916 0.134132L0 1.36152e-14L0 0Z" transform="translate(7.636293 55.25136)" id="Path" fill="#402326" fill-rule="evenodd" stroke="none" />
        <path d="M0 0L0.0335329 7.31497C0.737724 10.5868 8.3497 10.6683 8.81916 7.41557L8.81916 0.134132L0 1.36152e-14L0 0Z" transform="translate(47.10935 55.25136)" id="Path" fill="#402326" fill-rule="evenodd" stroke="none" />
        <path d="M0.0220263 7.503C-0.0115067 7.13892 -0.0115067 2.71258 0.0555592 0.925749C0.0555592 0.590419 0.889092 0.125749 1.55975 0.0922156C3.05915 -0.0419162 44.4053 -0.00838323 49.8136 0.0586826C50.149 0.0586826 51.7825 0.389222 51.8496 1.09341C51.8831 1.45749 51.9502 4.96407 51.9502 7.43593C51.9502 7.77126 51.0496 8.53773 49.3154 8.60479C47.2412 8.73892 5.49748 8.60479 2.15855 8.60479C0.357356 8.63832 0.0220263 7.83832 0.0220263 7.503Z" transform="translate(5.645404 48.682507)" id="Path" fill="#AE352E" fill-rule="evenodd" stroke="none" />
        <path d="M4.11018 0C6.38084 0 8.28264 1.33653 8.28264 3.03712C8.28264 4.73772 6.44791 6.10778 4.17246 6.10778C1.89701 6.10778 0 4.77604 0 3.07066C0 1.36527 1.80599 0 4.11018 0Z" transform="translate(7.8039575 49.84298)" id="Path" fill="#FFC500" fill-rule="evenodd" stroke="none" />
        <path d="M2.70659 0C4.20599 0 5.44192 0.900598 5.44192 1.96886C5.44192 3.03712 4.27305 3.93772 2.74012 4.00479C1.20719 4.07185 0 3.10419 0 2.03593C0 0.967664 1.2024 0.0335329 2.70659 0Z" transform="translate(9.207551 50.911243)" id="Path" fill="#E4FFF8" fill-rule="evenodd" stroke="none" />
        <path d="M0 1.08086L4.87186 1.0569C3.83713 -0.356268 1.03473 -0.356268 0 1.08086Z" transform="translate(9.442282 50.932186)" id="Path" fill="#98ACA9" fill-rule="evenodd" stroke="none" />
        <path d="M4.10539 0C6.37605 0 8.28264 1.33653 8.28264 3.03712C8.28264 4.73772 6.44312 6.10778 4.17246 6.10778C1.9018 6.10778 0 4.77604 0 3.07066C0 1.36527 1.83473 0 4.10539 0Z" transform="translate(46.30935 49.775917)" id="Path" fill="#FFC500" fill-rule="evenodd" stroke="none" />
        <path d="M2.7018 0C4.20599 0 5.44191 0.900598 5.44191 1.96886C5.44191 3.03712 4.27305 3.93772 2.73533 4.00479C1.1976 4.07185 0 3.10419 0 2.03593C0 0.967664 1.20239 0.0335329 2.7018 0Z" transform="translate(47.71294 50.81065)" id="Path" fill="#E4FFF8" fill-rule="evenodd" stroke="none" />
        <path d="M0 1.10722L4.87186 1.07369C3.77006 -0.363437 1.0012 -0.363437 0 1.10722Z" transform="translate(48.014736 50.838757)" id="Path" fill="#98ACA9" fill-rule="evenodd" stroke="none" />
      </g>
    </g>
  </g>
</svg>