<?xml version="1.0" encoding="utf-8"?>
<svg width="80px" height="80px" viewBox="0 0 80 80" version="1.1" xmlns:xlink="http://www.w3.org/1999/xlink" xmlns="http://www.w3.org/2000/svg">
  <g id="iconbigvan">
    <path d="M0 0L80 0L80 80L0 80L0 0Z" id="_Rectangle_167x167px_" fill="none" fill-rule="evenodd" stroke="none" />
    <g id="van" transform="translate(8 12)">
      <path d="M31.3293 5.48982C48.6321 5.48982 62.6587 4.26088 62.6587 2.74491C62.6587 1.22894 48.6321 0 31.3293 0C14.0266 0 0 1.22894 0 2.74491C0 4.26088 14.0266 5.48982 31.3293 5.48982Z" transform="translate(0.00011997423 57.350918)" id="Oval" fill="#A0B5B0" fill-rule="evenodd" stroke="none" />
      <path d="M0.191737 8.89861C1.40371 8.99442 5.7103 9.59801 7.11389 9.69382C8.10551 9.72735 8.42168 7.90699 7.68874 7.81118C6.95581 7.71537 5.26479 7.90699 5.26479 7.6531C5.29832 5.38723 6.06 1.6555 5.58096 0.467472C5.23126 -0.35648 1.49952 -0.13133 1.05401 1.46388C0.57497 3.38005 -0.416646 7.24112 0.191737 8.89861Z" transform="translate(0 19.613989)" id="Path" fill="#402326" fill-rule="evenodd" stroke="none" />
      <path d="M7.89867 8.90371C6.6867 8.99952 2.38011 9.60791 0.976517 9.70371C-0.0150996 9.73246 -0.331267 7.91689 0.401667 7.82108C1.1346 7.72527 2.82562 7.91689 2.82562 7.65821C2.79209 5.39713 2.02562 1.6606 2.50466 0.472577C2.85915 -0.356165 6.59089 -0.135806 7.0364 1.4594C7.51544 3.44743 8.50227 7.3085 7.89867 8.90371Z" transform="translate(54.5733 19.67116)" id="Path" fill="#402326" fill-rule="evenodd" stroke="none" />
      <path d="M5.65112 1.51859C2.74813 1.99763 0.736151 27.2383 0.1613 41.7198C-0.059059 47.5593 -0.059059 51.5785 0.194833 51.6455C16.1469 51.5497 32.9948 51.7413 50.4463 51.9617C51.1505 51.7078 50.1924 2.18925 44.3529 1.42278C31.5219 -0.505857 18.4724 -0.473552 5.65112 1.51859L5.65112 1.51859Z" transform="translate(5.8028917 0)" id="Path" fill="#EF3F35" fill-rule="evenodd" stroke="none" />
      <path d="M0.00958084 19.6815C0.00958084 18.6947 1.44671 0.347347 1.92575 0.347347C12.6323 0.112616 36.1054 -0.452653 43.291 0.697047C44.1198 0.826389 44.8862 8.7689 45.1737 20.0312C42.8743 20.0024 40.6419 19.9354 38.5677 19.9354C34.7353 19.9066 31.2287 19.9066 27.7844 19.9066C18.4671 19.8396 10.0599 19.9354 0 19.6815L0.00958084 19.6815Z" transform="translate(8.445629 9.468246)" id="Path" fill="#D9F4ED" fill-rule="evenodd" stroke="none" />
      <path d="M10.0503 5.07355C10.0527 5.05928 10.0527 5.04471 10.0503 5.03044L10.0503 4.93463L10.0503 4.93463C10.038 3.65023 9.52195 2.42199 8.61317 1.51427C7.6803 0.560582 6.40705 0.0161339 5.07305 0.000495177C3.74169 -0.0183187 2.45882 0.499665 1.51377 1.43762C0.562722 2.3723 0.0187619 3.64441 0 4.97774C0 4.97774 0 5.00169 0 5.01606L0 5.01606L0 5.94541L1.19281 5.94541L1.19281 5.03044L1.19281 5.03044C1.19281 5.03044 1.19281 5.03044 1.19281 5.03044C1.20129 4.00478 1.61652 3.02442 2.34731 2.30469C3.05802 1.58089 4.03485 1.18081 5.0491 1.1981C6.06801 1.20997 7.04023 1.62713 7.7509 2.35738C8.47091 3.07064 8.8703 4.04577 8.85748 5.05918C8.85748 5.05918 8.85748 5.05918 8.85748 5.05918L8.85748 6.01726L10.0503 6.01726L10.0503 5.05918L10.0503 5.07355Z" transform="translate(39.808502 23.415098)" id="Path" fill="#402326" fill-rule="evenodd" stroke="none" />
      <path d="M1.7019e-15 0L0.0335329 6.92216C0.670659 10.0168 7.91377 10.079 8.33054 7.01796L8.33054 0.158084L1.7019e-15 0Z" transform="translate(8.325869 50.97487)" id="Path" fill="#402326" fill-rule="evenodd" stroke="none" />
      <path d="M0 0L0.033533 6.92216C0.670659 10.0168 7.91378 10.079 8.32575 7.01796L8.32575 0.158084L0 0Z" transform="translate(45.5618 50.97487)" id="Path" fill="#402326" fill-rule="evenodd" stroke="none" />
      <path d="M0.352091 9.74868C8.13996 10.2053 15.9466 10.2469 23.7389 9.87323C23.7389 9.87323 24.9605 2.08401 22.4599 1.07323C18.6275 -0.488443 5.16646 -0.268083 1.33892 1.23132C-0.907789 2.12713 0.352091 9.74868 0.352091 9.74868Z" transform="translate(19.590544 41.508823)" id="Path" fill="#F97A5E" fill-rule="evenodd" stroke="none" />
      <path d="M0.6685 0C-0.188985 0.0335329 -0.256051 1.40359 0.6685 1.53293L18.8721 1.53293C19.2304 1.46757 19.4977 1.1658 19.5193 0.802191C19.5409 0.438584 19.3112 0.107303 18.9631 0L0.6685 0Z" transform="translate(21.918446 45.02996)" id="Path" fill="#AE352E" fill-rule="evenodd" stroke="none" />
      <path d="M0.6685 0C-0.188985 0.0335329 -0.256051 1.40838 0.6685 1.53293L18.8721 1.53293C19.2304 1.46757 19.4977 1.1658 19.5193 0.802191C19.5409 0.438584 19.3112 0.107303 18.9631 0L0.6685 0Z" transform="translate(21.918446 47.62158)" id="Path" fill="#AE352E" fill-rule="evenodd" stroke="none" />
      <path d="M50.3138 4.66587C50.0934 7.18563 37.5521 8.52695 25.8443 8.26826C12.5078 8.01437 0 6.57725 0 4.31138L0 0C3.51138 4.52695 47.4251 4.65629 50.7305 0.124551C50.9557 -0.258683 50.4431 3.09461 50.3138 4.68982L50.3138 4.66587Z" transform="translate(5.9019165 47.17128)" id="Path" fill="#AE352E" fill-rule="evenodd" stroke="none" />
      <path d="M3.74214 0.00918301C5.06036 -0.0856542 6.32212 0.55971 7.01675 1.68408C7.71137 2.80844 7.72383 4.22561 7.04907 5.36202C6.37432 6.49842 5.1241 7.16586 3.80442 7.09421C2.4862 7.18905 1.22444 6.54368 0.529817 5.41932C-0.164806 4.29495 -0.177263 2.87778 0.497488 1.74138C1.17224 0.604976 2.42246 -0.0624677 3.74214 0.00918301L3.74214 0.00918301Z" transform="translate(10.150191 40.01958)" id="Path" fill="#FFC500" fill-rule="evenodd" stroke="none" />
      <path d="M2.42398 0.00109998C3.73847 -0.0294308 4.84044 0.98777 4.915 2.3005C4.89399 3.62151 3.8073 4.67605 2.48625 4.65739C1.1744 4.68792 0.0745783 3.67286 2.42817e-05 2.36278C-0.0028731 1.72465 0.253633 1.11273 0.710695 0.667414C1.16776 0.222095 1.78614 -0.0184015 2.42398 0.00109998L2.42398 0.00109998Z" transform="translate(11.468359 41.273174)" id="Path" fill="#E4FFF8" fill-rule="evenodd" stroke="none" />
      <path d="M3.4038e-15 1.31873C3.4038e-15 1.31873 4.43593 1.38101 4.43593 1.31873C3.99407 0.505983 3.14306 0 2.21796 0C1.29287 0 0.44186 0.505983 0 1.31873L3.4038e-15 1.31873Z" transform="translate(11.679162 41.263325)" id="Path" fill="#98ACA9" fill-rule="evenodd" stroke="none" />
      <path d="M3.70304 0.00918301C5.02126 -0.0856542 6.28302 0.55971 6.97764 1.68408C7.67226 2.80844 7.68472 4.22561 7.00997 5.36202C6.33522 6.49842 5.085 7.16586 3.76531 7.09421C1.72459 7.09421 4.19904e-05 5.53254 4.19904e-05 3.58284C-0.00467535 2.61093 0.38826 1.67937 1.08762 1.00444C1.78697 0.329509 2.73191 -0.0300715 3.70304 0.00918301L3.70304 0.00918301Z" transform="translate(45.04918 39.923775)" id="Path" fill="#FFC500" fill-rule="evenodd" stroke="none" />
      <path d="M2.42398 0.00109998C3.73758 -0.0293299 4.83813 0.98852 4.9102 2.3005C4.8918 3.6215 3.80728 4.67816 2.48625 4.66218C1.1736 4.69009 0.0745321 3.67361 2.42817e-05 2.36278C-0.00287309 1.72465 0.253633 1.11273 0.710695 0.667414C1.16776 0.222095 1.78614 -0.0184015 2.42398 0.00109998L2.42398 0.00109998Z" transform="translate(46.328236 41.143833)" id="Path" fill="#E4FFF8" fill-rule="evenodd" stroke="none" />
      <path d="M0 1.31827C0 1.31827 4.46946 1.38533 4.46946 1.31827C4.01996 0.504909 3.16404 0 2.23473 0C1.30543 0 0.449504 0.504909 0 1.31827Z" transform="translate(46.519882 41.13445)" id="Path" fill="#98ACA9" fill-rule="evenodd" stroke="none" />
    </g>
  </g>
</svg>